<?xml version="1.0" encoding="UTF-8"?>
<svg width="258px" height="215px" viewBox="0 0 258 215" version="1.1" xmlns="http://www.w3.org/2000/svg" xmlns:xlink="http://www.w3.org/1999/xlink">
    <title>Fill 650</title>
    <g id="Page-6" stroke="none" stroke-width="1" fill="none" fill-rule="evenodd">
        <g id="Guide-de-normes" transform="translate(-267.000000, -162.000000)" fill="#DE463E">
            <path d="M395.9791,376.4754 C311.0091,376.4754 267.9611,325.3864 267.9611,224.6254 L267.9611,168.3444 C267.9611,165.2234 270.4891,162.6804 273.5961,162.6804 L307.1111,162.6804 C310.2411,162.6804 312.7681,165.2234 312.7681,168.3444 L312.7681,224.6254 C312.7681,259.2994 318.0141,285.0944 328.3911,301.2364 C341.3651,321.7014 363.4381,331.6604 395.9791,331.6604 C428.5431,331.6604 450.6541,321.7014 463.5741,301.2504 C473.9521,284.7744 479.1981,259.0104 479.1981,224.6254 L479.1981,168.3444 C479.1981,165.2234 481.7411,162.6804 484.8781,162.6804 L518.3411,162.6804 C521.4931,162.6804 524.0391,165.2234 524.0391,168.3444 L524.0391,224.6254 C524.0391,325.3864 480.9491,376.4754 395.9791,376.4754" id="Fill-650"></path>
        </g>
    </g>
</svg>