<?xml version="1.0" encoding="UTF-8"?>
<svg width="100px" height="100px" viewBox="0 0 100 100" version="1.1" xmlns="http://www.w3.org/2000/svg" xmlns:xlink="http://www.w3.org/1999/xlink">
    <title>Shape</title>
    <g id="Page-1" stroke="none" stroke-width="1" fill="none" fill-rule="evenodd">
        <g id="iPhone-11" transform="translate(-712.000000, -1552.000000)" fill="#2D2A26" fill-rule="nonzero">
            <g id="Group" transform="translate(108.000000, 90.000000)">
                <path d="M664.919925,1463.20916 C646.196235,1459.018 626.725673,1465.91158 614.810203,1480.95057 C602.894733,1495.98957 600.636372,1516.52095 608.998053,1533.79042 C617.359734,1551.05989 634.866365,1562.02094 654.053375,1561.99997 C679.53001,1561.97205 700.911523,1542.79204 703.697091,1517.46768 C706.482659,1492.14332 689.781361,1468.77421 664.919925,1463.20916 L664.919925,1463.20916 Z M673.951236,1516.6011 L658.472439,1527.83007 C657.227781,1528.77805 655.50329,1528.77805 654.258632,1527.83007 C652.863531,1526.71303 652.076154,1525.00403 652.133618,1523.21774 L652.133618,1517.54288 L636.437489,1517.54288 C636.025595,1517.53962 635.617275,1517.46612 635.230095,1517.32555 C633.167483,1516.36121 631.900173,1514.23783 632.0305,1511.96462 C631.919477,1509.72116 633.173571,1507.63256 635.205947,1506.67614 C635.591091,1506.5268 636.000267,1506.44906 636.413342,1506.44673 L652.10947,1506.44673 L652.10947,1500.7598 C652.052006,1498.9735 652.839383,1497.26451 654.234484,1496.14747 C655.488141,1495.19961 657.218782,1495.19961 658.472439,1496.14747 L673.96331,1507.37644 C675.344788,1508.503 676.125327,1510.20684 676.07625,1511.98877 C676.129874,1513.77087 675.342878,1515.47457 673.951236,1516.58902 L673.951236,1516.6011 Z" id="Shape"></path>
            </g>
        </g>
    </g>
</svg>