<?xml version="1.0" encoding="UTF-8"?>
<svg width="258px" height="215px" viewBox="0 0 258 215" version="1.1" xmlns="http://www.w3.org/2000/svg" xmlns:xlink="http://www.w3.org/1999/xlink">
    <title>Fill-650</title>
    <g id="Page-1" stroke="none" stroke-width="1" fill="none" fill-rule="evenodd">
        <g id="enhu" fill="#FFFFFF" fill-rule="nonzero">
            <path d="M128.9791,214.4754 C44.0091,214.4754 0.9611,163.3864 0.9611,62.6254 L0.9611,6.3444 C0.9611,3.2234 3.4891,0.6804 6.5961,0.6804 L40.1111,0.6804 C43.2411,0.6804 45.7681,3.2234 45.7681,6.3444 L45.7681,62.6254 C45.7681,97.2994 51.0141,123.0944 61.3911,139.2364 C74.3651,159.7014 96.4381,169.6604 128.9791,169.6604 C161.5431,169.6604 183.6541,159.7014 196.5741,139.2504 C206.9521,122.7744 212.1981,97.0104 212.1981,62.6254 L212.1981,6.3444 C212.1981,3.2234 214.7411,0.6804 217.8781,0.6804 L251.3411,0.6804 C254.4931,0.6804 257.0391,3.2234 257.0391,6.3444 L257.0391,62.6254 C257.0391,163.3864 213.9491,214.4754 128.9791,214.4754" id="Fill-650"></path>
        </g>
    </g>
</svg>