<?xml version="1.0" encoding="UTF-8"?>
<svg width="386px" height="174px" viewBox="0 0 386 174" version="1.1" xmlns="http://www.w3.org/2000/svg" xmlns:xlink="http://www.w3.org/1999/xlink">
    <title>LogoENH</title>
    <g id="Page-1" stroke="none" stroke-width="1" fill="none" fill-rule="evenodd">
        <g id="iPhone-11" transform="translate(-432.000000, -475.000000)">
            <g id="Group" transform="translate(108.000000, 90.000000)">
                <g id="LogoENH" transform="translate(324.000000, 385.000000)">
                    <path d="M211.768,146 L207.477,146 C207.074,146 206.748,146.326 206.748,146.727 L206.748,153.945 C206.748,158.355 206.074,161.66 204.744,163.773 C203.086,166.396 200.25,167.674 196.074,167.674 C191.904,167.674 189.072,166.396 187.409,163.771 C186.078,161.701 185.405,158.393 185.405,153.945 L185.405,146.727 C185.405,146.326 185.081,146 184.679,146 L180.38,146 C179.982,146 179.658,146.326 179.658,146.727 L179.658,153.945 C179.658,166.869 185.179,173.422 196.074,173.422 C206.973,173.422 212.498,166.869 212.498,153.945 L212.498,146.727 C212.498,146.326 212.172,146 211.768,146" id="Fill-1" fill="#DF5239"></path>
                    <path d="M0.984,59.88 L28.639,59.88 C29.098,59.88 29.471,59.509 29.471,59.048 L29.471,54.749 C29.471,54.292 29.098,53.919 28.639,53.919 L6.113,53.919 L6.113,39.39 L25.713,39.39 C26.172,39.39 26.545,39.015 26.545,38.558 L26.545,34.259 C26.545,33.8 26.172,33.427 25.713,33.427 L6.113,33.427 L6.113,20.702 L28.639,20.702 C29.098,20.702 29.471,20.329 29.471,19.87 L29.471,15.571 C29.471,15.112 29.098,14.739 28.639,14.739 L0.984,14.739 C0.524,14.739 0.152,15.112 0.152,15.571 L0.152,59.048 C0.152,59.509 0.524,59.88 0.984,59.88" id="Fill-2" fill="#111107"></path>
                    <path d="M11.013,11.606 L15.123,11.606 C15.405,11.606 15.667,11.464 15.82,11.229 L21.739,2.134 C21.905,1.88 21.917,1.554 21.773,1.284 C21.627,1.017 21.347,0.849 21.042,0.849 L16.309,0.849 C16.012,0.849 15.739,1.007 15.59,1.263 L10.294,10.358 C10.145,10.614 10.144,10.931 10.292,11.189 C10.44,11.446 10.715,11.606 11.013,11.606" id="Fill-3" fill="#111107"></path>
                    <path d="M52.368,60.44 C55.451,60.44 58.209,59.753 60.577,58.396 C62.561,57.229 64.626,55.343 66.714,52.786 C67.004,52.433 66.952,51.913 66.602,51.62 L63.302,48.88 C63.13,48.735 62.904,48.657 62.689,48.692 C62.468,48.712 62.265,48.823 62.125,48.995 C60.571,50.907 59.135,52.269 57.846,53.05 C56.327,53.999 54.484,54.48 52.368,54.48 C44.21,54.48 40.244,48.866 40.244,37.311 C40.244,25.759 44.21,20.142 52.368,20.142 C54.482,20.142 56.325,20.622 57.855,21.575 C59.141,22.356 60.577,23.72 62.125,25.626 C62.265,25.798 62.468,25.907 62.689,25.929 C62.914,25.956 63.131,25.884 63.302,25.741 L66.602,23.001 C66.771,22.86 66.877,22.655 66.898,22.436 C66.917,22.218 66.85,21.999 66.708,21.831 C64.584,19.278 62.524,17.393 60.569,16.222 C58.212,14.866 55.453,14.181 52.368,14.181 C46.074,14.181 41.293,16.636 38.159,21.466 C35.504,25.489 34.158,30.823 34.158,37.311 C34.158,43.757 35.504,49.067 38.153,53.083 C41.291,57.964 46.073,60.44 52.368,60.44" id="Fill-4" fill="#111107"></path>
                    <path d="M90.103,20.142 C98.302,20.142 102.289,25.759 102.289,37.311 C102.289,48.866 98.302,54.48 90.103,54.48 C81.942,54.48 77.975,48.866 77.975,37.311 C77.975,25.759 81.942,20.142 90.103,20.142 Z M90.103,60.44 C96.438,60.44 101.242,57.964 104.378,53.085 C106.948,49.103 108.25,43.794 108.25,37.311 C108.25,30.829 106.948,25.522 104.379,21.54 C101.242,16.655 96.438,14.181 90.103,14.181 C83.763,14.181 78.959,16.655 75.823,21.538 C73.256,25.518 71.955,30.825 71.955,37.311 C71.955,43.798 73.256,49.104 75.822,53.083 C78.959,57.964 83.765,60.44 90.103,60.44 L90.103,60.44 Z" id="Fill-5" fill="#111107"></path>
                    <path d="M117.011,59.88 L142.111,59.88 C142.571,59.88 142.942,59.509 142.942,59.048 L142.942,54.876 C142.942,54.417 142.571,54.044 142.111,54.044 L122.14,54.044 L122.14,15.571 C122.14,15.112 121.768,14.739 121.308,14.739 L117.011,14.739 C116.551,14.739 116.18,15.112 116.18,15.571 L116.18,59.048 C116.18,59.509 116.551,59.88 117.011,59.88" id="Fill-6" fill="#111107"></path>
                    <path d="M149.601,59.88 L177.25,59.88 C177.708,59.88 178.081,59.509 178.081,59.048 L178.081,54.749 C178.081,54.292 177.708,53.919 177.25,53.919 L154.73,53.919 L154.73,39.263 L174.323,39.263 C174.781,39.263 175.153,38.892 175.153,38.433 L175.153,34.259 C175.153,33.8 174.781,33.427 174.323,33.427 L154.73,33.427 L154.73,20.702 L177.25,20.702 C177.708,20.702 178.081,20.329 178.081,19.87 L178.081,15.571 C178.081,15.112 177.708,14.739 177.25,14.739 L149.601,14.739 C149.142,14.739 148.771,15.112 148.771,15.571 L148.771,59.048 C148.771,59.509 149.142,59.88 149.601,59.88" id="Fill-7" fill="#111107"></path>
                    <path d="M0.984,116.357 L5.283,116.357 C5.742,116.357 6.113,115.984 6.113,115.531 L6.113,82.819 L25.871,115.953 C26.021,116.203 26.293,116.357 26.585,116.357 L30.883,116.357 C31.342,116.357 31.715,115.984 31.715,115.531 L31.715,72.077 C31.715,71.618 31.342,71.247 30.883,71.247 L26.585,71.247 C26.126,71.247 25.755,71.618 25.755,72.077 L25.755,104.793 L5.996,71.651 C5.846,71.399 5.576,71.247 5.283,71.247 L0.984,71.247 C0.524,71.247 0.152,71.618 0.152,72.077 L0.152,115.531 C0.152,115.984 0.524,116.357 0.984,116.357" id="Fill-8" fill="#111107"></path>
                    <path d="M65.203,97.643 L51.686,97.643 L58.447,80.231 L65.203,97.643 Z M61.588,71.776 C61.465,71.456 61.156,71.247 60.813,71.247 L56.081,71.247 C55.738,71.247 55.429,71.456 55.305,71.776 L38.485,115.229 C38.386,115.482 38.419,115.773 38.574,115.998 C38.73,116.221 38.986,116.357 39.26,116.357 L43.871,116.357 C44.212,116.357 44.52,116.148 44.645,115.832 L49.484,103.473 L67.405,103.473 L72.185,115.828 C72.308,116.148 72.617,116.357 72.959,116.357 L77.63,116.357 C77.644,116.357 77.66,116.357 77.672,116.357 C78.132,116.357 78.502,115.984 78.502,115.531 C78.502,115.332 78.434,115.152 78.321,115.01 L61.588,71.776 L61.588,71.776 Z" id="Fill-9" fill="#111107"></path>
                    <path d="M108.724,76.312 L108.724,72.077 C108.724,71.618 108.352,71.247 107.893,71.247 L76.5,71.247 C76.042,71.247 75.669,71.618 75.669,72.077 L75.669,76.312 C75.669,76.771 76.042,77.144 76.5,77.144 L89.186,77.144 L89.186,115.531 C89.186,115.984 89.558,116.357 90.017,116.357 L94.377,116.357 C94.836,116.357 95.208,115.984 95.208,115.531 L95.208,77.144 L107.893,77.144 C108.352,77.144 108.724,76.771 108.724,76.312" id="Fill-10" fill="#111107"></path>
                    <path d="M115.803,116.357 L120.223,116.357 C120.682,116.357 121.054,115.984 121.054,115.531 L121.054,72.077 C121.054,71.618 120.682,71.247 120.223,71.247 L115.803,71.247 C115.344,71.247 114.972,71.618 114.972,72.077 L114.972,115.531 C114.972,115.984 115.344,116.357 115.803,116.357" id="Fill-11" fill="#111107"></path>
                    <path d="M147.118,76.647 C155.319,76.647 159.305,82.265 159.305,93.812 C159.305,105.352 155.319,110.967 147.118,110.967 C138.958,110.967 134.991,105.352 134.991,93.812 C134.991,82.265 138.958,76.647 147.118,76.647 Z M161.392,109.568 C163.96,105.592 165.26,100.289 165.26,93.812 C165.26,87.331 163.96,82.022 161.393,78.046 C158.256,73.163 153.454,70.687 147.118,70.687 C140.78,70.687 135.977,73.163 132.84,78.046 C130.271,82.026 128.97,87.333 128.97,93.812 C128.97,100.289 130.271,105.588 132.839,109.568 C135.975,114.447 140.778,116.922 147.118,116.922 C153.455,116.922 158.258,114.447 161.392,109.568 L161.392,109.568 Z" id="Fill-12" fill="#111107"></path>
                    <path d="M199.672,116.357 L203.967,116.357 C204.426,116.357 204.797,115.984 204.797,115.531 L204.797,72.077 C204.797,71.618 204.426,71.247 203.967,71.247 L199.672,71.247 C199.213,71.247 198.84,71.618 198.84,72.077 L198.84,104.793 L179.082,71.651 C178.932,71.399 178.661,71.247 178.367,71.247 L174.072,71.247 C173.613,71.247 173.241,71.618 173.241,72.077 L173.241,115.531 C173.241,115.984 173.613,116.357 174.072,116.357 L178.367,116.357 C178.827,116.357 179.198,115.984 179.198,115.531 L179.198,82.819 L198.957,115.953 C199.107,116.203 199.377,116.357 199.672,116.357" id="Fill-13" fill="#111107"></path>
                    <path d="M224.434,97.645 L231.191,80.233 L237.949,97.645 L224.434,97.645 Z M240.15,103.475 L244.928,115.83 C245.053,116.15 245.359,116.359 245.701,116.359 L250.373,116.359 C250.387,116.359 250.402,116.359 250.416,116.359 C250.875,116.359 251.248,115.986 251.248,115.533 C251.248,115.334 251.18,115.154 251.066,115.012 L234.332,71.778 C234.209,71.458 233.9,71.249 233.557,71.249 L228.826,71.249 C228.48,71.249 228.174,71.458 228.051,71.778 L211.23,115.23 C211.129,115.484 211.166,115.775 211.32,116 C211.477,116.223 211.732,116.359 212.006,116.359 L216.615,116.359 C216.959,116.359 217.266,116.15 217.387,115.834 L222.229,103.475 L240.15,103.475 L240.15,103.475 Z" id="Fill-14" fill="#111107"></path>
                    <path d="M258.098,116.357 L283.193,116.357 C283.654,116.357 284.027,115.984 284.027,115.531 L284.027,111.355 C284.027,110.896 283.654,110.525 283.193,110.525 L263.225,110.525 L263.225,72.077 C263.225,71.618 262.852,71.247 262.391,71.247 L258.098,71.247 C257.637,71.247 257.264,71.618 257.264,72.077 L257.264,115.531 C257.264,115.984 257.637,116.357 258.098,116.357" id="Fill-15" fill="#111107"></path>
                    <path d="M290.683,116.359 L318.335,116.359 C318.796,116.359 319.167,115.986 319.167,115.533 L319.167,111.234 C319.167,110.777 318.796,110.404 318.335,110.404 L295.808,110.404 L295.808,95.764 L315.409,95.764 C315.866,95.764 316.239,95.393 316.239,94.934 L316.239,90.763 C316.239,90.304 315.866,89.933 315.409,89.933 L295.808,89.933 L295.808,77.21 L318.335,77.21 C318.796,77.21 319.167,76.835 319.167,76.378 L319.167,72.079 C319.167,71.62 318.796,71.249 318.335,71.249 L290.683,71.249 C290.222,71.249 289.851,71.62 289.851,72.079 L289.851,115.533 C289.851,115.986 290.222,116.359 290.683,116.359" id="Fill-16" fill="#111107"></path>
                    <path d="M23.213,165.1 C21.326,166.293 18.227,166.896 14.002,166.896 L6.113,166.896 L6.113,133.687 L14.002,133.687 C19.89,133.687 23.674,135.018 25.246,137.633 C25.989,138.906 26.875,142.137 26.875,150.293 C26.875,154.9 26.711,158.102 26.393,159.785 C25.893,162.32 24.852,164.059 23.213,165.1 Z M14.002,127.73 L0.984,127.73 C0.524,127.73 0.152,128.104 0.152,128.562 L0.152,172.027 C0.152,172.486 0.524,172.859 0.984,172.859 L14.002,172.859 C22.023,172.859 27.41,170.939 30.01,167.145 C32.036,164.191 33.022,158.678 33.022,150.293 C33.022,142.121 31.974,136.645 29.822,133.562 C27.134,129.693 21.811,127.73 14.002,127.73 L14.002,127.73 Z" id="Fill-17" fill="#111107"></path>
                    <path d="M69.445,127.73 L41.79,127.73 C41.331,127.73 40.959,128.104 40.959,128.562 L40.959,172.027 C40.959,172.486 41.331,172.859 41.79,172.859 L69.445,172.859 C69.903,172.859 70.277,172.486 70.277,172.027 L70.277,167.729 C70.277,167.27 69.903,166.896 69.445,166.896 L46.919,166.896 L46.919,152.244 L66.519,152.244 C66.979,152.244 67.351,151.873 67.351,151.414 L67.351,147.24 C67.351,146.781 66.979,146.41 66.519,146.41 L46.919,146.41 L46.919,133.687 L69.445,133.687 C69.903,133.687 70.277,133.316 70.277,132.857 L70.277,128.562 C70.277,128.104 69.903,127.73 69.445,127.73" id="Fill-18" fill="#111107"></path>
                    <path d="M124.299,167.027 L104.326,167.027 L104.326,128.562 C104.326,128.104 103.953,127.73 103.495,127.73 L99.199,127.73 C98.74,127.73 98.368,128.104 98.368,128.562 L98.368,172.027 C98.368,172.486 98.74,172.859 99.199,172.859 L124.299,172.859 C124.759,172.859 125.131,172.486 125.131,172.027 L125.131,167.857 C125.131,167.398 124.759,167.027 124.299,167.027" id="Fill-19" fill="#111107"></path>
                    <path d="M122.82,128.048 C122.228,128.644 121.905,129.368 121.864,130.218 L121.477,140.019 C121.468,140.218 121.543,140.411 121.68,140.554 C121.819,140.698 122.011,140.78 122.211,140.78 L122.872,140.78 C123.122,140.78 123.354,140.655 123.49,140.442 L127.787,133.778 C127.848,133.688 127.884,133.585 127.898,133.478 L128.286,130.325 C128.386,129.431 128.073,128.634 127.382,128.019 C126.073,126.849 124.014,126.856 122.82,128.048" id="Fill-20" fill="#111107"></path>
                    <path d="M169.392,127.73 L165.03,127.73 C164.573,127.73 164.201,128.104 164.201,128.562 L164.201,146.598 L143.132,146.598 L143.132,128.562 C143.132,128.104 142.758,127.73 142.301,127.73 L138.002,127.73 C137.543,127.73 137.172,128.104 137.172,128.562 L137.172,172.027 C137.172,172.486 137.543,172.859 138.002,172.859 L142.301,172.859 C142.758,172.859 143.132,172.486 143.132,172.027 L143.132,152.367 L164.201,152.367 L164.201,172.027 C164.201,172.486 164.573,172.859 165.03,172.859 L169.392,172.859 C169.85,172.859 170.222,172.486 170.222,172.027 L170.222,128.562 C170.222,128.104 169.85,127.73 169.392,127.73" id="Fill-21" fill="#111107"></path>
                    <path d="M258.881,127.73 L254.52,127.73 C254.172,127.73 253.855,127.949 253.736,128.283 L240.941,164.205 L228.084,128.279 C227.965,127.949 227.652,127.73 227.299,127.73 L222.941,127.73 C222.48,127.73 222.109,128.104 222.109,128.562 L222.109,172.027 C222.109,172.486 222.48,172.859 222.941,172.859 L227.299,172.859 C227.758,172.859 228.131,172.486 228.131,172.027 L228.131,144.65 L238.107,172.309 C238.223,172.643 238.535,172.859 238.887,172.859 L242.936,172.859 C243.285,172.859 243.6,172.643 243.717,172.314 L253.752,144.625 L253.752,172.027 C253.752,172.486 254.123,172.859 254.582,172.859 L258.881,172.859 C259.34,172.859 259.711,172.486 259.711,172.027 L259.711,128.562 C259.711,128.104 259.34,127.73 258.881,127.73" id="Fill-22" fill="#111107"></path>
                    <path d="M285.912,167.461 C277.754,167.461 273.785,161.848 273.785,150.293 C273.785,138.74 277.754,133.129 285.912,133.129 C294.113,133.129 298.104,138.74 298.104,150.293 C298.104,161.848 294.113,167.461 285.912,167.461 Z M285.912,127.172 C279.576,127.172 274.775,129.645 271.637,134.52 C269.066,138.502 267.764,143.807 267.764,150.293 C267.764,156.777 269.066,162.084 271.633,166.062 C274.771,170.945 279.574,173.422 285.912,173.422 C292.248,173.422 297.051,170.945 300.189,166.062 C302.758,162.084 304.059,156.779 304.059,150.293 C304.059,143.807 302.758,138.498 300.191,134.52 C297.051,129.645 292.244,127.172 285.912,127.172 L285.912,127.172 Z" id="Fill-23" fill="#111107"></path>
                    <path d="M344.148,127.73 L339.85,127.73 C339.391,127.73 339.018,128.104 339.018,128.562 L339.018,153.842 C339.018,158.232 338.348,161.516 337.031,163.611 C335.395,166.201 332.59,167.461 328.451,167.461 C324.316,167.461 321.512,166.201 319.871,163.604 C318.553,161.553 317.883,158.271 317.883,153.842 L317.883,128.562 C317.883,128.104 317.512,127.73 317.053,127.73 L312.754,127.73 C312.295,127.73 311.922,128.104 311.922,128.562 L311.922,153.842 C311.922,166.834 317.484,173.422 328.451,173.422 C339.42,173.422 344.979,166.834 344.979,153.842 L344.979,128.562 C344.979,128.104 344.605,127.73 344.148,127.73" id="Fill-24" fill="#111107"></path>
                    <path d="M359.146,133.687 L368.902,133.687 C374.926,133.687 377.852,135.922 377.852,140.518 C377.852,145.471 375.066,147.779 369.088,147.779 L359.146,147.779 L359.146,133.687 Z M384.893,171.418 L374.92,154.49 C374.611,153.945 374.287,153.447 373.945,153.006 C376.674,152.449 378.955,151.113 380.738,149.035 C382.818,146.689 383.873,143.824 383.873,140.518 C383.873,136.148 382.373,132.822 379.426,130.633 C376.84,128.707 373.299,127.73 368.902,127.73 L354.016,127.73 C353.555,127.73 353.184,128.104 353.184,128.562 L353.184,172.027 C353.184,172.486 353.555,172.859 354.016,172.859 L358.313,172.859 C358.771,172.859 359.146,172.486 359.146,172.027 L359.146,153.303 L364.604,153.303 C366.461,153.303 367.938,154.291 369.119,156.316 L378.521,172.447 C378.672,172.705 378.945,172.859 379.24,172.859 L384.287,172.859 C384.301,172.859 384.314,172.859 384.328,172.859 C384.789,172.859 385.16,172.486 385.16,172.027 C385.16,171.882 385.038,171.651 384.893,171.418 L384.893,171.418 Z" id="Fill-25" fill="#111107"></path>
                </g>
            </g>
        </g>
    </g>
</svg>