<?xml version="1.0" encoding="UTF-8"?>
<svg width="720px" height="600px" viewBox="0 0 720 600" version="1.1" xmlns="http://www.w3.org/2000/svg" xmlns:xlink="http://www.w3.org/1999/xlink">
    <title>Fill 650</title>
    <g id="Page-1" stroke="none" stroke-width="1" fill="none" fill-rule="evenodd">
        <path d="M359.940955,600 C121.035622,600 0,456.622465 0,173.844103 L0,15.8956009 C0,7.13674314 7.10783433,0 15.8436102,0 L110.075836,0 C118.87628,0 125.981303,7.13674314 125.981303,15.8956009 L125.981303,173.844103 C125.981303,271.154143 140.731183,343.54592 169.907606,388.84726 C206.385867,446.280783 268.44727,474.229987 359.940955,474.229987 C451.499309,474.229987 513.667554,446.280783 549.993986,388.88655 C579.173221,342.647864 593.923102,270.343086 593.923102,173.844103 L593.923102,15.8956009 C593.923102,7.13674314 601.073111,0 609.893236,0 L703.979256,0 C712.841556,0 720,7.13674314 720,15.8956009 L720,173.844103 C720,456.622465 598.846289,600 359.940955,600" id="Fill-650" fill="#DE463E"></path>
    </g>
</svg>